/* XPM */
static char *result[] = {
/* columns rows colors chars-per-pixel */
"32 32 6 1 ",
"  c #FFFCFA",
". c #FFFFFC",
"X c #FFFEFD",
"o c #FFFFFE",
"O c white",
"+ c None",
/* pixels */
"++++++++++++++++++++++++++++++++",
"++++++++++++++++++++++++++++++++",
"++++++++++++++++++++++++++++++++",
"++++++++++++++++++++++++++++++++",
"++++++++++++++++++++++++++++++++",
"++++++++++++++++++++++++++++++++",
"++++++++++++++++++++++++++++++++",
"++++++++++++++++++++++++OO++++++",
"+++++++++++++++++++++++OOO++++++",
"++++++++++++++++++++++OOOO++++++",
"+++++++++++++++++++++OO++OO+++++",
"+++++++++++++++++++OOO+++OOO++++",
"++++++++++++++++++.OOO++++++++++",
"+++++++++++++++++OOOOOO+++++++++",
"++++++++++++++++OOO++OOO++++++++",
"+++++++++++++++ X+++++O+++++++++",
"++++++++++++++OO++++++++++++++++",
"++++++OOOOO++oO+++++++++++++++++",
"++++OOOOOOOOOO++++++++++++++++++",
"+++OOO+++++OO+++++++++++++++++++",
"++OOO+++++++OO++++++++++++++++++",
"++OO++++++++OO++++++++++++++++++",
"++OO++++++++OO++++++++++++++++++",
"++OO++++++++OO++++++++++++++++++",
"++OOO+++++++OO++++++++++++++++++",
"+++OOO+++++OOO++++++++++++++++++",
"++++OOOOOOOOO+++++++++++++++++++",
"+++++OOOOOOO++++++++++++++++++++",
"++++++++++++++++++++++++++++++++",
"++++++++++++++++++++++++++++++++",
"++++++++++++++++++++++++++++++++",
"++++++++++++++++++++++++++++++++"
};
