/* XPM */
static char *result[] = {
/* columns rows colors chars-per-pixel */
"32 32 5 1 ",
"  c #FFFDF9",
". c #FFFEFD",
"X c #FFFFFE",
"o c white",
"O c None",
/* pixels */
"OOOOOOOOOOOOOOOOOOOOOOOOOOOOOOOO",
"OOOOOOOOOOOOOOOOOOOOOOOOOOOOOOOO",
"OOOOOOOOOOOOOOOOOOOOOOOOOOOOOOOO",
"OOOOOOOOOOOOOOOOOOOOOOOOOOOOOOOO",
"OOOOOOOOOOOOOOOOOOOOOOOOOOOOOOOO",
"OOOOOOOOOOOOOOOOOOOOOOOOOOOOOOOO",
"OOOOOOOOOOOOOOOOOOOOOOOOOOOOOOOO",
"OOOOOOOOOOOOOOOOOOOooOOOOOOOOOOO",
"OOOOOOOOOOOOOOOOOOOooOOOOOOOOOOO",
"OOOOOOOOOOOOOOOOOOoooOOOOOOOOOOO",
"OOOOOOOOOOOOOOOOOOoooOOOOOOOOOOO",
"OOOOOOOOOOOOOOOOOoooooOOOOOOOOOO",
"OOOOOOOOOOOOOOOOooooooOOOOOOOOOO",
"OOOOOOOOOOOOOOOOooooOOOOOOOOOOOO",
"OOOOOOOOOOOOOOOooooOOOOOOOOOOOOO",
"OOOOOOOOOOOOOOOXooooOOOOOOOOOOOO",
"OOOOOOOOOOOOOO .OOOOOOOOOOOOOOOO",
"OOOOOOOOOOOOOooOOOOOOOOOOOOOOOOO",
"OOOOOOOOOooooooOOOOOOOOOOOOOOOOO",
"OOOOOOOOooooooOOOOOOOOOOOOOOOOOO",
"OOOOOOOOooOOooOOOOOOOOOOOOOOOOOO",
"OOOOOOOOXOOOoooOOOOOOOOOOOOOOOOO",
"OOOOOOOOoOOOOooOOOOOOOOOOOOOOOOO",
"OOOOOOOOoOOOOooOOOOOOOOOOOOOOOOO",
"OOOOOOOOoOOOOooOOOOOOOOOOOOOOOOO",
"OOOOOOOOoOOOooOOOOOOOOOOOOOOOOOO",
"OOOOOOOOooOOooOOOOOOOOOOOOOOOOOO",
"OOOOOOOOooooooOOOOOOOOOOOOOOOOOO",
"OOOOOOOOOooooOOOOOOOOOOOOOOOOOOO",
"OOOOOOOOOOOOOOOOOOOOOOOOOOOOOOOO",
"OOOOOOOOOOOOOOOOOOOOOOOOOOOOOOOO",
"OOOOOOOOOOOOOOOOOOOOOOOOOOOOOOOO"
};
