/* XPM */
static char *result[] = {
/* columns rows colors chars-per-pixel */
"32 32 5 1 ",
"  c #FFFDFC",
". c #FFFEFD",
"X c #FFFEFE",
"o c white",
"O c None",
/* pixels */
"OOOOOOOOOOOOOOOOOOOOOOOOOOOOOOOO",
"OOOOOOOOOOOOOOOOOOOOOOOOOOOOOOOO",
"OOOOOOOOOOOOOOOOOOOOOOOOOOOOOOOO",
"OOOOOOOOOOOOOOOOOOOOOOOOOOOOOOOO",
"OOOOOOOOOOOoOOOOOOOOOOOOOOOOOOOO",
"OOOOOOOOOOOoOOOOOOOOOOOOOOOOOOOO",
"OOOOOOOOOOOooOOOOOOOOOOOOOOOOOOO",
"OOOOOOOOOOOooOOOOOOOOOOOOOOOOOOO",
"OOOOOOOOOOOooOOOOOOOOOOOOOOOOOOO",
"OOOOOOOOOOoooOOOOOOOOOOOOOOOOOOO",
"OOOOOOOOOOOoooOOOOOOOOOOOOOOOOOO",
"OOOOOOOOOOOOooOOOOOOOOOOOOOOOOOO",
"OOOOOOOOOOOOoooOOOOOOOOOOOOOOOOO",
"OOOOOOOOOOOOoooOOOOOOOOOOOOOOOOO",
"OOOOOOOOOOOOOooOOOOOOOOOOOOOOOOO",
"OOOOOOOOOOOOOOo.OOOOOOOOOOOOOOOO",
"OOOOOOOOOOOOOOo XoOOOOOOOOOOOOOO",
"OOOOOOOOOOOOOOooooOOOOOOOOOOOOOO",
"OOOOOOOOOOOOOOoooooOOOOOOOOOOOOO",
"OOOOOOOOOOOOOOoooooOOOOOOOOOOOOO",
"OOOOOOOOOOOOOOoooooOOOOOOOOOOOOO",
"OOOOOOOOOOOOOOoooooOOOOOOOOOOOOO",
"OOOOOOOOOOOOOOoooooOOOOOOOOOOOOO",
"OOOOOOOOOOOOOOoooooOOOOOOOOOOOOO",
"OOOOOOOOOOOOOOooooOOOOOOOOOOOOOO",
"OOOOOOOOOOOOOOOoooOOOOOOOOOOOOOO",
"OOOOOOOOOOOOOOOOOOOOOOOOOOOOOOOO",
"OOOOOOOOOOOOOOOOOOOOOOOOOOOOOOOO",
"OOOOOOOOOOOOOOOOOOOOOOOOOOOOOOOO",
"OOOOOOOOOOOOOOOOOOOOOOOOOOOOOOOO",
"OOOOOOOOOOOOOOOOOOOOOOOOOOOOOOOO",
"OOOOOOOOOOOOOOOOOOOOOOOOOOOOOOOO"
};
