/* XPM */
static char *result[] = {
/* columns rows colors chars-per-pixel */
"32 32 7 1 ",
"  c #FFFAF5",
". c #FFFCF9",
"X c #FFFEFD",
"o c #FFFEFE",
"O c #FFFFFE",
"+ c white",
"@ c None",
/* pixels */
"@@@@@@@@@@@@@@@@@@@@@@@@@@@@@@@@",
"@@@@@@@@@@@@@@@@@@@@@@@@@@@@@@@@",
"@@@@@@@@@@@@@@@@@@@@@@@@@@@@@@@@",
"@@@@@@@@@@@@@@@@@@@@@@@@@@@@@@@@",
"@@@@@@@@@@@@@@@@@@@@@@@@@@@@@@@@",
"@@@@@@@@@@@@@@@@@@@@@@@@@@@@@@@@",
"@@@@@@X.@@@@@@@@@@@@@@@@@@@@@@@@",
"@@@@@@Oo+@@@@@@@@@@@@@@@@@@@@@@@",
"@@@@@@++++@@@@@@@@@@@@@@@@@@@@@@",
"@@@@@++++++@@@@@@@@@@@@@@@@@@@@@",
"@@@@ ++@@+++@@@@@@@@@@@@@@@@@@@@",
"@@@@@@@@@@+++@@@@@@@@@@@@@@@@@@@",
"@@@@@@@@@+++++@@@@@@@@@@@@@@@@@@",
"@@@@@@@@+++@+++@@@@@@@@@@@@@@@@@",
"@@@@@@@@@+@@@+++@@@@@@@@@@@@@@@@",
"@@@@@@@@@@@@@@@++@@@@@@@@@@@@@@@",
"@@@@@@@@@@@@@@@@++++++++@@@@@@@@",
"@@@@@@@@@@@@@@@@++++++++++@@@@@@",
"@@@@@@@@@@@@@@@@@+++@@@@++@@@@@@",
"@@@@@@@@@@@@@@@@@++@@@@@@++@@@@@",
"@@@@@@@@@@@@@@@@++@@@@@@@++@@@@@",
"@@@@@@@@@@@@@@@@++@@@@@@@++@@@@@",
"@@@@@@@@@@@@@@@@++@@@@@@@++@@@@@",
"@@@@@@@@@@@@@@@@+++@@@@@@++@@@@@",
"@@@@@@@@@@@@@@@@@++@@@@@+++@@@@@",
"@@@@@@@@@@@@@@@@@@++++++++@@@@@@",
"@@@@@@@@@@@@@@@@@@@++++++@@@@@@@",
"@@@@@@@@@@@@@@@@@@@@@@@@@@@@@@@@",
"@@@@@@@@@@@@@@@@@@@@@@@@@@@@@@@@",
"@@@@@@@@@@@@@@@@@@@@@@@@@@@@@@@@",
"@@@@@@@@@@@@@@@@@@@@@@@@@@@@@@@@",
"@@@@@@@@@@@@@@@@@@@@@@@@@@@@@@@@"
};
