/* XPM */
static char *result[] = {
/* columns rows colors chars-per-pixel */
"32 32 52 1 ",
"  c #5B5B5B",
". c #B1B0B0",
"X c #B7B7B7",
"o c #BBBABB",
"O c #CACBCB",
"+ c #D4D3D3",
"@ c gray83",
"# c #D8D8D8",
"$ c gray85",
"% c gray86",
"& c #DDDDDD",
"* c #E1E1E2",
"= c #E2E2E3",
"- c gray91",
"; c #E9E9E9",
": c #EDEBEB",
"> c #ECECEC",
", c gray93",
"< c #EEEFEF",
"1 c #EFEFF0",
"2 c gray94",
"3 c gray95",
"4 c #F3F3F3",
"5 c #F5F2F3",
"6 c #F5F5F3",
"7 c #F4F4F4",
"8 c #F5F4F5",
"9 c gray96",
"0 c #F5F6F5",
"q c #F6F6F6",
"w c gray97",
"e c #F8F8F8",
"r c #F9F8F8",
"t c #F9F9F9",
"y c gray98",
"u c #FBFAFB",
"i c #FAFBFB",
"p c #FBFBFB",
"a c gray99",
"s c #FDFCFD",
"d c #FDFDFD",
"f c #FEFEFD",
"g c #FFFDFF",
"h c #FEFEFE",
"j c #FFFEFE",
"k c #FEFFFE",
"l c #FFFFFE",
"z c #FEFEFF",
"x c #FFFEFF",
"c c #FEFFFF",
"v c white",
"b c None",
/* pixels */
"bbbbbbbbbbbbbbbbbbbbbbbbbbbbbbbb",
"bbbbbbbbbbbbbbbbbbbbbbbbbbbbbbbb",
"bbbbbbbbbbbbbbbbbbbb:X2bbbbbbbbb",
"bbbbbbbbbbbbbbbbbbb=chbbbbbbbbbb",
"bbbbbbbbbbbbbbbbbvdcvxbbbbbbbbbb",
"bbbbbbbbbbbbbbbbbdvvvvbbbbbbbbbb",
"bbbbbbbbbbbbbbbb-xvv%bbbbbbbbbbb",
"bbbbbbbbbbbbbbbgclvc>9bbbbbbbbbb",
"bbbbbbbbbbbbbbbevlxvcvvbbbbbbbbb",
"bbO2abbfvxwtvaysvvzvvzvbbbbbbbbb",
"bb+vlv5;xvcvxxcvvxvvvlbbbbbbbbbb",
"bbb8cvtalvlvvvxvvvvvvvbbbbbbbbbb",
"bbbevvvjcvvvvvcvzvvvvzbbbbbbbbbb",
"bbbbvvvvxclxvvlvvvvvlvbbbbbbbbbb",
"bbbbbvdvvvxvcvhquvlzvvbbbbbbbbbb",
"bbbbbbbv3cvvvv< ovvvxv1bbbbbbbbb",
"bbbbbbbbbaxvcvq.$xvcvvvd6vbbbbbb",
"bbbbbbbbbivvvvxvlxlvvvzvlvvbbbbb",
"bbbbbbbbb9vvxvlvvvvclcvvvccvbbbb",
"bbbbbbbbbvlkvlvvvvcvlxxxvxl4bbbb",
"bbbbbbbbb9vcvvjvvcvvvxlh%rzvvbbb",
"bbbbbbbbbyvlcxvvjyplxvvcdphx@bbb",
"bbbbbbbbvcvvvvlpvbbbbvvvbbbb&,bb",
"bbbbbbbbbcvvcvvvbbbbbbbbbbbbbbbb",
"bbbbbbbbbb%plljvbbbbbbbbbbbbbbbb",
"bbbbbbbbbb*cvlvbbbbbbbbbbbbbbbbb",
"bbbbbbbbbpvvjpbbbbbbbbbbbbbbbbbb",
"bbbbbbbbb2vvvbbbbbbbbbbbbbbbbbbb",
"bbbbbbbbb#7vbbbbbbbbbbbbbbbbbbbb",
"bbbbbbbb0,bbbbbbbbbbbbbbbbbbbbbb",
"bbbbbbbbbbbbbbbbbbbbbbbbbbbbbbbb",
"bbbbbbbbbbbbbbbbbbbbbbbbbbbbbbbb"
};
