/* XPM */
static char *result[] = {
/* columns rows colors chars-per-pixel */
"32 32 71 1 ",
"  c #C1C0C0",
". c #C0C1C1",
"X c #C3C3C3",
"o c #C5C5C5",
"O c #C6C6C6",
"+ c #CCCBCC",
"@ c #D1D1D2",
"# c #D2D2D2",
"$ c #D5D5D5",
"% c #DADADA",
"& c gray87",
"* c #DFDFDF",
"= c #E0E1E1",
"- c #E1E2E1",
"; c #E3E2E3",
": c gray90",
"> c #E7E7E7",
", c #E9E9E9",
"< c #EAEAEA",
"1 c gray92",
"2 c #ECECEC",
"3 c gray93",
"4 c #EEEDEE",
"5 c #EEEEEE",
"6 c #EFEFEF",
"7 c #EFEFF0",
"8 c gray94",
"9 c #F1F0F1",
"0 c #F1F1F1",
"q c gray95",
"w c #F2F3F2",
"e c #F2F3F3",
"r c #F3F3F3",
"t c #F4F4F3",
"y c #F5F5F3",
"u c #F4F4F4",
"i c #F5F4F4",
"p c #F5F4F5",
"a c #F4F5F5",
"s c #F5F5F6",
"d c #F6F6F6",
"f c #F7F6F7",
"g c gray97",
"h c #F8F9F7",
"j c #F8F8F8",
"k c #F9F8F8",
"l c #F8F9F9",
"z c #F9F9F9",
"x c gray98",
"c c #FBFAFA",
"v c #FBFAFB",
"b c #FAFBFB",
"n c #FBFBFB",
"m c gray99",
"M c #FCFCFD",
"N c #FCFDFD",
"B c #FDFDFD",
"V c #FFFDFD",
"C c #FFFFFD",
"Z c #FFFDFF",
"A c #FDFEFE",
"S c #FDFFFF",
"D c #FEFEFE",
"F c #FFFEFE",
"G c #FEFFFE",
"H c #FFFFFE",
"J c #FEFEFF",
"K c #FFFEFF",
"L c #FEFFFF",
"P c white",
"I c None",
/* pixels */
"IIIIIIIIIIIIIIIIIIIIIIIIIIIIIIII",
"IIIIIIIIIIIIIIIIIIIIIIIIIIIIIIII",
"IIIIIIIIIIIIIIIIIIIIIIIIIIIIIIII",
"IIIIIIIIIIIIIIIIPIIIIIIIIIIIIIII",
"IIIIIIIIIIIIIPd9n2j82IIIIIIIIIII",
"IIIIIIIIIIzPJPKLPPKPPu4PIIIIIIII",
"IIIIIIIIPjPKGPPPdPG+<PPAIIIIIIII",
"IIIIIIS3DPPPmIIIPKD#,LxBPIIIIIII",
"IIIIIrLoXJGPPIIIPLPPPP>OeZIIIIII",
"IIIIIPP$$HFHPZPPLKHPPPi0KPIIIIII",
"IIIIrPLPPPPHPLHPPPPPKJPPGPIIIIII",
"IIIIuf9zLPPKPLPPPPPPLPLPKKrIIIII",
"IIIPP5I1PPPPLPPILLKGPLLPHLPIIIII",
"IIIPLKHPPPLPPPIIIPPPPPKPjPPIIIII",
"IIIBPKPPPPPPPIIIIIIPPJPIIPKPIIII",
"IIm8PPPPDPPKPIIIIIIIPKPIIPHLIIII",
"III@PPIICKPPIIIIIIIPPPPIIPPp-III",
"III1PPIIIPPPIIIIIIPPPPPvPBPq0III",
"IIIIxPLISPHKDPIIIIPPPDKHKPPPIIII",
"IIIItPKkmPPPHPPIIPKLPLPHd5PPIIII",
"IIIIwPKKPPPPPPPPGDKPPDLGPlPPIIII",
"IIIIIqPPPHDPKPPPPPPKPLPPBDPPIIII",
"IIIIIuPPPFPPPLPPKPPHPPNgPPHIIIII",
"IIIIIPP:.zLPPPGPIIsPPP1ybPPIIIII",
"IIIIII3; gL6xLPIIIPHPHa*BPIIIIII",
"IIIIIIIhPPDu=PPIIPcLPPJ7IIIIIIII",
"IIIIIIIIPPF&aPPPHPPPPBPIIIIIIIII",
"IIIIIIIIzmjMKPLPLKmPPIIIIIIIIIII",
"IIIIIIIIIIIIPV%:mIIIIIIIIIIIIIII",
"IIIIIIIIIIIIIIIBIIIIIIIIIIIIIIII",
"IIIIIIIIIIIIIIIIIIIIIIIIIIIIIIII",
"IIIIIIIIIIIIIIIIIIIIIIIIIIIIIIII"
};
