/* XPM */
static char *result[] = {
/* columns rows colors chars-per-pixel */
"32 32 115 2 ",
"   c #C4C2C2",
".  c gray79",
"X  c #C9CAC9",
"o  c #CECECE",
"O  c gray81",
"+  c #D0D0D0",
"@  c #D3D2D3",
"#  c LightGray",
"$  c #D5D5D3",
"%  c gray83",
"&  c #D5D5D4",
"*  c #D5D5D5",
"=  c #D5D7D5",
"-  c gray84",
";  c #D7D6D6",
":  c #D6D7D7",
">  c #D7D7D7",
",  c gray85",
"<  c #DADAD8",
"1  c #DADADA",
"2  c #DADADB",
"3  c #DBDADB",
"4  c gray86",
"5  c #DCDCDB",
"6  c #DBDCDC",
"7  c gainsboro",
"8  c #DCDDDC",
"9  c #DDDDDD",
"0  c #DCDEDF",
"q  c #DEDFDE",
"w  c #DFDFDE",
"e  c #DEDFDF",
"r  c #DFDFDF",
"t  c #E1DFDF",
"y  c #E0DEE0",
"u  c #DFE0E0",
"i  c gray88",
"p  c #E0E1E0",
"a  c #E1E0E1",
"s  c #E0E1E1",
"d  c #E1E1E1",
"f  c #E3E2E1",
"g  c #E1E2E3",
"h  c #E2E2E2",
"j  c #E3E2E2",
"k  c #E2E3E2",
"l  c #E3E3E2",
"z  c #E3E2E3",
"x  c gray89",
"c  c #E5E4E3",
"v  c #E4E3E4",
"b  c #E3E5E5",
"n  c #E4E4E4",
"m  c #E5E4E4",
"M  c #E4E5E4",
"N  c #E5E5E4",
"B  c #E4E4E5",
"V  c #E5E4E5",
"C  c #E4E5E5",
"Z  c gray90",
"A  c #E4E6E4",
"S  c #E5E7E7",
"D  c #E6E6E6",
"F  c #E7E6E6",
"G  c #E6E7E6",
"H  c #E6E6E7",
"J  c #E7E6E7",
"K  c #E6E7E7",
"L  c #E7E7E7",
"P  c #E8E6E8",
"I  c #E7E9E9",
"U  c gray91",
"Y  c #E8E9E8",
"T  c #E9E9E8",
"R  c #E8E8E9",
"E  c #E9E8E9",
"W  c #E9E9E9",
"Q  c #E9EAE9",
"!  c #E9EBE9",
"~  c #EAE8EA",
"^  c #EBE9EB",
"/  c #EAEAEA",
"(  c #EBEAEA",
")  c #EAEBEA",
"_  c #EAEAEB",
"`  c #EAEBEB",
"'  c gray92",
"]  c #ECEBEC",
"[  c #ECECEC",
"{  c #EDEDEC",
"}  c gray93",
"|  c #EDEDEE",
" . c #EEEEEE",
".. c #EEEFEE",
"X. c #EFEFEE",
"o. c #EFEFEF",
"O. c #EFF0EF",
"+. c #F0EFF0",
"@. c #EFF0F0",
"#. c gray94",
"$. c #F0F1F0",
"%. c #F1F1F1",
"&. c #F3F2F1",
"*. c #F1F3F3",
"=. c gray95",
"-. c #F3F3F3",
";. c #F3F3F5",
":. c #F3F5F5",
">. c gray96",
",. c #F5F6F6",
"<. c #F6F6F6",
"1. c #F7F6F6",
"2. c #F9F9F9",
"3. c #FDFDFD",
"4. c None",
/* pixels */
"4.4.4.4.4.4.4.4.4.4.4.4.4.4.4.4.4.4.4.4.4.4.4.4.4.4.4.4.4.4.4.4.",
"4.4.4.4.4.4.4.4.4.4.4.4 * $ - , 4 4 # X   4.4.4.4.4.4.4.4.4.4.4.",
"4.4.4.4.4.4.4.4.4.4.- E L L F L L L L L U < 4.4.4.4.4.4.4.4.4.4.",
"4.4.4.4.4.4.4.4.4.e x n n n n B n n n V M x n W 4.4.4.4.4.4.4.4.",
"4.4.4.4.4.4.4.u , Z m Z m n M n n n n n Z Z D & Z 4.4.4.4.4.4.4.",
"4.4.4.4.4.4.4.- w 4.4.4.1 D n n n n V z 4.4.4.D i 4.4.4.4.4.4.4.",
"4.4.4.4.4.4.4.! 4.4.4.4.;.4 B V n B 0 @.4.4.4.4.o.4.4.4.4.4.4.4.",
"4.4.4.4.4.4.4.4.4.4.4.4.4.4.m n n D 4.4.4.4.4.4.4.4.4.4.4.4.4.4.",
"4.4.4.4.4.4.4.4.4.4.4.4.4.4.n D H D 4.4.4.4.4.4.4.4.4.4.4.4.4.4.",
"4.4.4.4.4.4.4.4.4.4.4.4.4.>.x =.4.r [ 4.4.4.4.4.4.4.4.4.4.4.4.4.",
"4.4.4.4.4.4.4.b o.4.4.4.1.` 3.4.4.4.' X.4.4.4.4.U 4.4.4.4.4.4.4.",
"4.4.4.4.4.4.4.D 4 r r i n 4.4.4.4.4.4.j ; t h g #.4.4.4.4.4.4.4.",
"4.4.4.4.4.4.4.4.4.4.2 L Z , 4.4.4.4.H n G x 4.4.4.4.4.4.4.4.4.4.",
"4.4.4.4.4.4.4.4.4.4.W L N D D 4.4.' L Z L o.4.4.4.4.4.4.4.4.4.4.",
"4.4.4.4.4.4.4.4.4.4.o.n { , x d D l 8 ( s o.4.4.4.4.4.4.4.4.4.4.",
"4.4.4.4.4.4.4.4.4.4.:.O.4.4.] 4.4.' [ 4.%.>.4.4.4.4.4.4.4.4.4.4.",
"4.4.4.4.4.4./ P 4.4.4.4.4.4.4.4.4.4.4.4.4.4.4.4.4.d 4.4.4.4.4.4.",
"4.4.4.4.4.%.W T 4.4.4.4.4.4.4.4.4.4.4.4.4.4.4.4.D T #.4.4.4.4.4.",
"4.4.4.4.4. .K L 4.4.4.4.4.4.4.4.4.4.4.4.4.4.4.4.x D U 4.4.4.4.4.",
"4.4.> o 7 @ L Z + %.4.4.4.4.4.4.4.4.4.4.4.4.4.5 n G 9 w O % 4.4.",
"4.4.O / L [ ~ 9 Y Z 4.4.4.4.4.4.4.4.4.4.4.4.e Y k } ' p ) j 4.4.",
"4.4.x i ,.4.4.$.R ..3 Z D 4.4.4.4.4.4.o.Z ' -.[ <.4.4.*.r } 4.4.",
"4.4.4.4.4.4.4.4.4.4.=.n B 1 D U U W y B n 2.4.4.4.4.4.4.4.4.4.4.",
"4.4.4.4.4.4.4.4.4.4.4.4.: D G U U H C v 4.4.4.4.4.4.4.4.4.4.4.4.",
"4.4.4.4.4.4.4.4.4.4.4.4.r D x } =.r D Z 4.4.4.4.4.4.4.4.4.4.4.4.",
"4.4.6 a o.4.4.4.4.-.'  .| U =.4.4.+.x J n W  .4.4.4.4.=.s c 4.4.",
"4.4.> U F v ' o.` D R &.4.4.4.4.4.4.4.4.W W L r / ^ Q x L p 4.4.",
"4.4.4.4.4.. U L I 4.4.4.4.4.4.4.4.4.4.4.4.4.4.A D J q 4.4.4.4.4.",
"4.4.4.4.4.= L L U 4.4.4.4.4.4.4.4.4.4.4.4.4.4.4.n J n 4.4.4.4.4.",
"4.4.4.4.4.S e d 4.4.4.4.4.4.4.4.4.4.4.4.4.4.4.4.f r _ 4.4.4.4.4.",
"4.4.4.4.4.4.4.4.4.4.4.4.4.4.4.4.4.4.4.4.4.4.4.4.4.4.4.4.4.4.4.4.",
"4.4.4.4.4.4.4.4.4.4.4.4.4.4.4.4.4.4.4.4.4.4.4.4.4.4.4.4.4.4.4.4."
};
