/* XPM */
static char *result[] = {
/* columns rows colors chars-per-pixel */
"32 32 68 1 ",
"  c gray50",
". c #8E8E8E",
"X c #929191",
"o c #929092",
"O c #939395",
"+ c gray59",
"@ c #989898",
"# c #9C9D9D",
"$ c #9D9D9D",
"% c #9C9C9E",
"& c gray62",
"* c #9F9F9E",
"= c #A19F9F",
"- c #9FA19F",
"; c #A19FA1",
": c gray63",
"> c #A1A2A1",
", c #A2A2A2",
"< c #A3A4A4",
"1 c #A4A4A4",
"2 c #A5A5A5",
"3 c gray65",
"4 c #A7A7A7",
"5 c #A9A7A7",
"6 c #A6A7A9",
"7 c gray66",
"8 c #A9A9A9",
"9 c #A9AAA8",
"0 c #AAA8AA",
"q c #AAA9AA",
"w c #AAAAAA",
"e c #AAABAA",
"r c #ABAAAB",
"t c gray67",
"y c #ACACAA",
"u c #ACACAC",
"i c gray68",
"p c #ADADAE",
"a c #ADADAF",
"s c #AFAEAF",
"d c #AEAFAF",
"f c #AFAFAF",
"g c #B0B0AE",
"h c #B0AFB0",
"j c #B1B1B1",
"k c #B3B1B1",
"l c #B1B2B1",
"z c #B1B1B3",
"x c gray70",
"c c #B5B4B7",
"v c #B6B6B6",
"b c #B7B7B6",
"n c gray72",
"m c #B9B9B9",
"M c gray73",
"N c #BABBBB",
"B c #BBBBBB",
"V c #BEBEBD",
"C c #BFBEBF",
"Z c #BEBFBF",
"A c gray75",
"S c #C0C0C0",
"D c gray78",
"F c #CFCFCE",
"G c gray83",
"H c #D5D5D5",
"J c #DEDFDF",
"K c None",
/* pixels */
"KKKKKKKKKKKKKKKKKKKKKKKKKKKKKKKK",
"KKKKKKKKKKKKKKKKKKKKKKKKKKKKKKKK",
"KKKKKKKKKKKKKKKKKKKKKK,0KKKKKKKK",
"KKKKKKKKKKKKKKKKKKKKKKKKKKKKKKKK",
"KKKKKK KKKKKKKKKKKO$,KKKKKKKKKKK",
"KKKKKKKKKKKK,4KK,KKKrKKKKKKKKKKK",
"KKKKKKKKKKKKKKKKsKKKKKKKKKKKKKKK",
"KKKKKKK*KK#$KKKiiKKKKKKKKKKKKKKK",
"KKKKKKdKKKy9KKKK&KK<CKK%KKKKKKKK",
"KKKKKKxKKKKFKKKK-KjGKKKNKKKKKKKK",
"KKKKKKKKKKKZKKwmKKKKKKKKKKKKKKKK",
"KKKKKKKVKKKKKKKKKKKKKKKKKKKKKKKK",
"KKKKKKKmj5KKKKKKKKKtKKvBcKKKKKKK",
"KKKKKKKKKKKKKKKKKKKaK2jKKK8KKKKK",
"KKKKKKfKKKgSKKKKKKKKKKKKKK0KKKKK",
"KKKKKKKKKKxKKKKKKKKKKKKKKKeKKKKK",
"KKKKKKKKKKKKKKKKKKKKKqDKKKjKKKKK",
"KKKKKKK6hHAKKKKKKK$@KKKwKKKKK4KK",
"KKKKKKKKKKKKK$KKKK:3KKKKKKKKK1KK",
"KKKKKKKKKKKKK+,KKKKKKKKKKKKKKKKK",
"KjMKKKiKKKKuKKKKKKw3kK24KKKKKKKK",
"KKzKKKnKKK$bKKKKJKKlSKK7pKKKKKKK",
"KKKKKKK8KKKKKKKKKKKK1KKKKKKKKKKK",
"KKKKKKKKKKKK2KKKKKKKKKKKKKKKKKKK",
"KKKKKKKKKKKK;KKKKKKKKKKKKKKKKKKK",
"KKKKKKKKKKKKKKK.KoX>4KKKKKKKKKKK",
"KKKKKKKKKKKKKKKKK=KKKKKKKKKKKKKK",
"KKKKKKKKKKKKKKKKKKKKKKKKKKKKKKKK",
"KKKKKKKKKKKKKKKKKlKKKKKKKKKKKKKK",
"KKKKKKKKKKKKKKKK8jKKKKKKKKKKKKKK",
"KKKKKKKKKKKKKKKKKKKKKKKKKKKKKKKK",
"KKKKKKKKKKKKKKKKKKKKKKKKKKKKKKKK"
};
