/* XPM */
static char *result[] = {
/* columns rows colors chars-per-pixel */
"32 32 95 2 ",
"   c #A7A7A7",
".  c #B2B2B2",
"X  c #B4B4B4",
"o  c #B6B6B6",
"O  c #B9B9B9",
"+  c #BABBBA",
"@  c #BCBCBD",
"#  c #BCBDBD",
"$  c #C1C1C1",
"%  c #C3C3C3",
"&  c gray77",
"*  c #CDCDCD",
"=  c #CECECE",
"-  c #D0D0D0",
";  c #D2D2D3",
":  c #D7D7D7",
">  c gray85",
",  c #DADADA",
"<  c #DBDADA",
"1  c #DBDBDC",
"2  c gainsboro",
"3  c #DDDDDC",
"4  c #DDDDDD",
"5  c #DEDDDE",
"6  c #DFDEDF",
"7  c #DFDFDF",
"8  c gray88",
"9  c #E1E1E1",
"0  c #E2E2E2",
"q  c #E4E4E4",
"w  c gray90",
"e  c #E6E6E6",
"r  c #E7E7E6",
"t  c #E6E6E7",
"y  c #E6E8E8",
"u  c gray91",
"i  c #E9E8E8",
"p  c #E8E9E8",
"a  c #E8E8E9",
"s  c #E9E9E9",
"d  c #EAEAEA",
"f  c #EBEAEB",
"g  c #EDEBED",
"h  c #ECECEC",
"j  c #ECEDEC",
"k  c #ECECED",
"l  c gray93",
"z  c #EDEEEE",
"x  c #EEEEEE",
"c  c #EFEEEE",
"v  c #EFEFEF",
"b  c #F0EFF0",
"n  c #F0F1F0",
"m  c #F0F0F1",
"M  c #F1F1F1",
"N  c gray95",
"B  c #F2F2F3",
"V  c #F3F2F3",
"C  c #F3F3F3",
"Z  c #F3F5F5",
"A  c #F4F4F4",
"S  c #F5F4F4",
"D  c #F4F5F4",
"F  c #F4F4F5",
"G  c gray96",
"H  c #F4F6F5",
"J  c #F5F6F5",
"K  c #F6F6F6",
"L  c #F6F7F6",
"P  c #F6F6F7",
"I  c gray97",
"U  c #F8F8F8",
"Y  c #F9F9F8",
"T  c #F8F8F9",
"R  c #F9F8F9",
"E  c #F9F9F9",
"W  c gray98",
"Q  c #FBFBFA",
"!  c #FAFAFB",
"~  c #FBFAFB",
"^  c #FBFBFB",
"/  c gray99",
"(  c #FDFCFC",
")  c #FCFDFC",
"_  c #FCFCFD",
"`  c #FDFDFD",
"'  c #FFFDFF",
"]  c #FEFEFE",
"[  c #FFFEFE",
"{  c #FEFFFE",
"}  c #FFFFFE",
"|  c #FFFEFF",
" . c #FEFFFF",
".. c white",
"X. c None",
/* pixels */
"X.X.X.X.X.X.X.X.X.X.X.X.X.X.X.X.X.X.X.X.X.X.X.X.X.X.X.X.X.X.X.X.",
"X.X.X.X.X.X.X.X.X.X.X.X.X.X.X.X.X.X.X.X.X.X.X.X.X.X.X.X.X.X.X.X.",
"X.X.X.X.X.X.X.X.X.X.X.X.X.X.X.X.X.X.X.X.X.X.X.X.X.X.X.X.X.X.X.X.",
"X.X.X.X.X.X.X.X.X.X.X.X.X.X.X.X.X.X.X.X.X.X.X.X.X.X.X.X.X.X.X.X.",
"X.X.X.X.X.X.X.X.X.X.X.X.X.X.X.X.X.....N X.X.X.X.X.X.X.X.X.X.X.X.",
"X.X.X.X.X.X.X.X.X.X.X.X.X.X.X.X.X.p | V X.X.X.X.X.X.X.X.X.X.X.X.",
"X.X.X.d X.X.X.X.X.X.X.X.X.X.X.H 5 x ..{ X.X.X.X.X.X.X.X.X.X.X.X.",
"X.X.X.X., 0 P X.X.X.X.X.X.X.w ] ....N X X.X.X.X.X.X.X.X.X.X.X.X.",
"X.X.X.X.1 ..` h U X...N z S } 4 % E G $ = X.X.X.X.X.X.X.X.X.X.X.",
"X.X.X.X.X.^ ....7 M ^ ........q & A L # 6 X.X.X.X.X.X.X.X.X.X.X.",
"X.X.X.X.X.v i E | } ....' X.X.X.X.N x ~ R X.X.X.X.X.X.X.X.X.X.X.",
"X.X.X.X.X.X.. k ....[ ..X.X.X.X.X.X.X.I } X.X.X.X.X.X.X.X.X.X.X.",
"X.X.X.X.X.X.! ..@ 4 X.X.X.X.X.X.X.X.X.X.x G X.X.X.X.X.X.X.X.X.X.",
"X.X.X.X.X.X.U | e g X.X.X.X.X.X.X.X.X.X.X...M W X.X.X.X.X.X.X.X.",
"X.X.X.X.X.X.X.F ..X.X.X.X.X.X.X.X.X.X.X.X.R G U y X.X.X.X.X.X.X.",
"X.X.X.X.X.X.X.A X.X.X.X.X.X.X.X.X.X.X.X.X.X.s W + O 4 X.X.X.X.X.",
"X.X.X.X.X.X.X.j ` X.X.X.X.X.X.X.X.X.X.X...n / ..T m ..; X.n X.X.",
"X.X.X.X.X.X... .d X.X.X.X.X.X.X.X.X.X.X.J ..E o l [ ) X.X.X.X.X.",
"X.X.X.X.X.X.X.a ....X.X.X.X.X.X.X.X.X.X.....: * d X.X.X.X.X.X.X.",
"X.X.X.X.X.X.X.3 ^ X.X.X.X.X.X.X.X.X.X.X.( ] ~ X.X.X.X.X.X.X.X.X.",
"X.X.X.X.X.B 4 F ] X.X.X.X.X.X.X.X.X.X.' ^ X.X.X.X.X.X.X.X.X.X.X.",
"X.X.X.X./ ..< I _ b f W X.X.X.X.X.X.C ....X.X.X.X.X.X.X.X.X.X.X.",
"X.X.X.X.u Q 9 2 ` Y E | ^ ..D Y / K 8 G X.X.X.X.X.X.X.X.X.X.X.X.",
"X.X.N 0 v U X.X.X.X.X...Z ..I h ......N X.X.X.X.X.X.X.X.X.X.X.X.",
"X.X.U X.X.X.X.X.X.X.X.X.X.W *   t ..q U X.X.X.X.X.X.X.X.X.X.X.X.",
"X.X.X.X.X.X.X.X.X.X.X.X.X.X.X.& e - > X.X.X.X.X.X.X.X.X.X.X.X.X.",
"X.X.X.X.X.X.X.X.X.X.X.X.X.X.X.X.V c r X.X.X.X.X.X.X.X.X.X.X.X.X.",
"X.X.X.X.X.X.X.X.X.X.X.X.X.X.X.X.] } W X.X.X.X.X.X.X.X.X.X.X.X.X.",
"X.X.X.X.X.X.X.X.X.X.X.X.X.X.X.X.X.U C X.X.X.X.X.X.X.X.X.X.X.X.X.",
"X.X.X.X.X.X.X.X.X.X.X.X.X.X.X.X.X.X.l X.X.X.X.X.X.X.X.X.X.X.X.X.",
"X.X.X.X.X.X.X.X.X.X.X.X.X.X.X.X.X.X.X.X.X.X.X.X.X.X.X.X.X.X.X.X.",
"X.X.X.X.X.X.X.X.X.X.X.X.X.X.X.X.X.X.X.X.X.X.X.X.X.X.X.X.X.X.X.X."
};
