/* XPM */
static char *result[] = {
/* columns rows colors chars-per-pixel */
"32 32 85 1 ",
"  c #9D9D9D",
". c #9F9F9F",
"X c #A3A2A2",
"o c #A5A5A5",
"O c gray67",
"+ c #B2B2B2",
"@ c gray70",
"# c #B4B4B4",
"$ c #B9B9B9",
"% c gray73",
"& c #C4C5C4",
"* c #C5C5C4",
"= c #C6C6C7",
"- c #C7C6C7",
"; c #C9C8C9",
": c gray79",
"> c #D1D0D0",
", c LightGray",
"< c #D4D3D4",
"1 c gray83",
"2 c #D4D4D5",
"3 c #D5D5D5",
"4 c gray84",
"5 c #D7D7D7",
"6 c #D8D8D8",
"7 c #DCDCDB",
"8 c gainsboro",
"9 c #DDDDDD",
"0 c #DDDEDD",
"q c gray87",
"w c #DFDFDF",
"e c gray88",
"r c #E1E1E1",
"t c #E2E2E2",
"y c gray89",
"u c #E4E2E2",
"i c gray90",
"p c #E6E6E6",
"a c #E7E7E6",
"s c #E7E7E7",
"d c gray91",
"f c #E9E9E9",
"g c #EAEAEA",
"h c gray92",
"j c #EBECEC",
"k c #ECECEC",
"l c gray93",
"z c #EFEFEF",
"x c gray94",
"c c #F1F1F0",
"v c #F0F2F1",
"b c #F3F2F2",
"n c #F3F3F2",
"m c #F3F2F3",
"M c #F3F3F3",
"N c #F4F4F4",
"B c #F5F4F4",
"V c #F4F4F5",
"C c #F4F5F5",
"Z c gray96",
"A c #F6F6F6",
"S c #F7F6F7",
"D c gray97",
"F c #F9F9F8",
"G c #F8F8F9",
"H c #F9F9F9",
"J c gray98",
"K c #FBFAFA",
"L c #FBFBFB",
"P c gray99",
"I c #FDFCFC",
"U c #FCFDFC",
"Y c #FCFCFD",
"T c #FDFCFD",
"R c #FDFDFD",
"E c #FFFDFF",
"W c #FEFEFE",
"Q c #FFFEFE",
"! c #FEFFFE",
"~ c #FFFFFE",
"^ c #FEFEFF",
"/ c #FFFEFF",
"( c #FEFFFF",
") c white",
"_ c None",
/* pixels */
"________________________________",
"________)_______________________",
"________6P______________________",
"_______h))____________NeL7A_____",
"_______0!(k_________)H)Q))______",
"_______4((k>/))____RN)~F)_______",
"_______w~)a&((~C)__y~)H&________",
"________))r#~)))GgW()rxrz_______",
"________M()$X))Q^())8 D))_______",
"_________6)f=)~))~()p2)~)_______",
"_________x/)))))())/^)/))_______",
"_________p))PR)/!^(()))))_______",
"________Sl/)1i))~))()~(/________",
"_______M))))JI())L))~))W________",
"______)//)/)/))___)~)))/L_______",
"______)))/))())___~)~~)))cR_____",
"______/Pp-P))))A)J)/))(L~()P____",
"___u,:*o@OT)))))))()!QZ.%x~)R___",
"_pqU(WZxAP)Q)))))bG))QWh+5C~!D__",
"__v))Q~)))())()))3f)))))QfjJ))R_",
"____(())))WR))))))/))))//)__)Ad_",
"___________R)))/)^)/n)))E_____L_",
"____________R))txK))____________",
"____________R))p_m)_____________",
"_____________))8<)))____________",
"_____________)R;B~R_____________",
"_______________9)))_____________",
"_______________s)~)_____________",
"_______________Y)~______________",
"_______________V)_______________",
"_______________D________________",
"________________________________"
};
